<?xml version="1.0" encoding="UTF-8" standalone="no"?>
<!DOCTYPE svg PUBLIC "-//W3C//DTD SVG 1.1//EN"
 "http://www.w3.org/Graphics/SVG/1.1/DTD/svg11.dtd">
<!-- Generated by graphviz version 2.38.0 (20140413.2041)
 -->
<!-- Title: controllers_diagram Pages: 1 -->
<svg width="595pt" height="577pt"
 viewBox="0.00 0.00 594.93 577.00" xmlns="http://www.w3.org/2000/svg" xmlns:xlink="http://www.w3.org/1999/xlink">
<g id="graph0" class="graph" transform="scale(1 1) rotate(0) translate(258.941 369.5)">
<title>controllers_diagram</title>
<polygon fill="none" stroke="none" points="-258.941,207.5 -258.941,-369.5 335.986,-369.5 335.986,207.5 -258.941,207.5"/>
<!-- _diagram_info -->
<g id="node1" class="node"><title>_diagram_info</title>
<text text-anchor="start" x="110.312" y="-161.1" font-family="Times,serif" font-size="13.00">Controllers diagram</text>
<text text-anchor="start" x="110.312" y="-148.1" font-family="Times,serif" font-size="13.00">Date: Apr 23 2016 &#45; 16:55</text>
<text text-anchor="start" x="110.312" y="-135.1" font-family="Times,serif" font-size="13.00">Migration version: 20160423204437</text>
<text text-anchor="start" x="110.312" y="-122.1" font-family="Times,serif" font-size="13.00">Generated by RailRoady 1.4.2</text>
<text text-anchor="start" x="110.312" y="-109.1" font-family="Times,serif" font-size="13.00">http://railroady.prestonlee.com</text>
</g>
<!-- ApplicationController -->
<g id="node2" class="node"><title>ApplicationController</title>
<path fill="none" stroke="black" d="M-89.8208,203C-89.8208,203 25.8208,203 25.8208,203 31.8208,203 37.8208,197 37.8208,191 37.8208,191 37.8208,123 37.8208,123 37.8208,117 31.8208,111 25.8208,111 25.8208,111 -89.8208,111 -89.8208,111 -95.8208,111 -101.821,117 -101.821,123 -101.821,123 -101.821,191 -101.821,191 -101.821,197 -95.8208,203 -89.8208,203"/>
<text text-anchor="middle" x="-32" y="126.2" font-family="Times,serif" font-size="14.00">ApplicationController</text>
<polyline fill="none" stroke="black" points="-101.821,133 37.8208,133 "/>
<text text-anchor="start" x="-93.8208" y="148.2" font-family="Times,serif" font-size="14.00">cors_preflight_check</text>
<polyline fill="none" stroke="black" points="-101.821,155 37.8208,155 "/>
<polyline fill="none" stroke="black" points="-101.821,179 37.8208,179 "/>
</g>
<!-- DivingsController -->
<g id="node3" class="node"><title>DivingsController</title>
<path fill="none" stroke="black" d="M-242.941,-1C-242.941,-1 -149.059,-1 -149.059,-1 -143.059,-1 -137.059,-7 -137.059,-13 -137.059,-13 -137.059,-149 -137.059,-149 -137.059,-155 -143.059,-161 -149.059,-161 -149.059,-161 -242.941,-161 -242.941,-161 -248.941,-161 -254.941,-155 -254.941,-149 -254.941,-149 -254.941,-13 -254.941,-13 -254.941,-7 -248.941,-1 -242.941,-1"/>
<text text-anchor="middle" x="-196" y="-145.8" font-family="Times,serif" font-size="14.00">DivingsController</text>
<polyline fill="none" stroke="black" points="-254.941,-139 -137.059,-139 "/>
<text text-anchor="start" x="-246.941" y="-123.8" font-family="Times,serif" font-size="14.00">create</text>
<text text-anchor="start" x="-246.941" y="-109.8" font-family="Times,serif" font-size="14.00">destroy</text>
<text text-anchor="start" x="-246.941" y="-95.8" font-family="Times,serif" font-size="14.00">index</text>
<text text-anchor="start" x="-246.941" y="-81.8" font-family="Times,serif" font-size="14.00">show</text>
<text text-anchor="start" x="-246.941" y="-67.8" font-family="Times,serif" font-size="14.00">update</text>
<polyline fill="none" stroke="black" points="-254.941,-61 -137.059,-61 "/>
<polyline fill="none" stroke="black" points="-254.941,-37 -137.059,-37 "/>
<text text-anchor="start" x="-246.941" y="-21.8" font-family="Times,serif" font-size="14.00">diving_params</text>
<text text-anchor="start" x="-246.941" y="-7.8" font-family="Times,serif" font-size="14.00">set_diving</text>
</g>
<!-- MiscellaneousPricingsController -->
<g id="node4" class="node"><title>MiscellaneousPricingsController</title>
<path fill="none" stroke="black" d="M-90.1519,84C-90.1519,84 86.1519,84 86.1519,84 92.1519,84 98.1519,78 98.1519,72 98.1519,72 98.1519,-64 98.1519,-64 98.1519,-70 92.1519,-76 86.1519,-76 86.1519,-76 -90.1519,-76 -90.1519,-76 -96.1519,-76 -102.152,-70 -102.152,-64 -102.152,-64 -102.152,72 -102.152,72 -102.152,78 -96.1519,84 -90.1519,84"/>
<text text-anchor="middle" x="-2" y="-60.8" font-family="Times,serif" font-size="14.00">MiscellaneousPricingsController</text>
<polyline fill="none" stroke="black" points="-102.152,-54 98.1519,-54 "/>
<text text-anchor="start" x="-94.1519" y="-38.8" font-family="Times,serif" font-size="14.00">create</text>
<text text-anchor="start" x="-94.1519" y="-24.8" font-family="Times,serif" font-size="14.00">destroy</text>
<text text-anchor="start" x="-94.1519" y="-10.8" font-family="Times,serif" font-size="14.00">index</text>
<text text-anchor="start" x="-94.1519" y="3.2" font-family="Times,serif" font-size="14.00">show</text>
<text text-anchor="start" x="-94.1519" y="17.2" font-family="Times,serif" font-size="14.00">update</text>
<polyline fill="none" stroke="black" points="-102.152,24 98.1519,24 "/>
<polyline fill="none" stroke="black" points="-102.152,48 98.1519,48 "/>
<text text-anchor="start" x="-94.1519" y="63.2" font-family="Times,serif" font-size="14.00">miscellaneous_pricing_params</text>
<text text-anchor="start" x="-94.1519" y="77.2" font-family="Times,serif" font-size="14.00">set_miscellaneous_pricing</text>
</g>
<!-- RentalsController -->
<g id="node5" class="node"><title>RentalsController</title>
<path fill="none" stroke="black" d="M-242.769,186C-242.769,186 -151.231,186 -151.231,186 -145.231,186 -139.231,180 -139.231,174 -139.231,174 -139.231,38 -139.231,38 -139.231,32 -145.231,26 -151.231,26 -151.231,26 -242.769,26 -242.769,26 -248.769,26 -254.769,32 -254.769,38 -254.769,38 -254.769,174 -254.769,174 -254.769,180 -248.769,186 -242.769,186"/>
<text text-anchor="middle" x="-197" y="41.2" font-family="Times,serif" font-size="14.00">RentalsController</text>
<polyline fill="none" stroke="black" points="-254.769,48 -139.231,48 "/>
<text text-anchor="start" x="-246.769" y="63.2" font-family="Times,serif" font-size="14.00">create</text>
<text text-anchor="start" x="-246.769" y="77.2" font-family="Times,serif" font-size="14.00">destroy</text>
<text text-anchor="start" x="-246.769" y="91.2" font-family="Times,serif" font-size="14.00">index</text>
<text text-anchor="start" x="-246.769" y="105.2" font-family="Times,serif" font-size="14.00">show</text>
<text text-anchor="start" x="-246.769" y="119.2" font-family="Times,serif" font-size="14.00">update</text>
<polyline fill="none" stroke="black" points="-254.769,126 -139.231,126 "/>
<polyline fill="none" stroke="black" points="-254.769,150 -139.231,150 "/>
<text text-anchor="start" x="-246.769" y="165.2" font-family="Times,serif" font-size="14.00">rental_params</text>
<text text-anchor="start" x="-246.769" y="179.2" font-family="Times,serif" font-size="14.00">set_rental</text>
</g>
<!-- SpecialtiesController -->
<g id="node6" class="node"><title>SpecialtiesController</title>
<path fill="none" stroke="black" d="M-56.0967,-103C-56.0967,-103 54.0967,-103 54.0967,-103 60.0967,-103 66.0967,-109 66.0967,-115 66.0967,-115 66.0967,-251 66.0967,-251 66.0967,-257 60.0967,-263 54.0967,-263 54.0967,-263 -56.0967,-263 -56.0967,-263 -62.0967,-263 -68.0967,-257 -68.0967,-251 -68.0967,-251 -68.0967,-115 -68.0967,-115 -68.0967,-109 -62.0967,-103 -56.0967,-103"/>
<text text-anchor="middle" x="-1" y="-247.8" font-family="Times,serif" font-size="14.00">SpecialtiesController</text>
<polyline fill="none" stroke="black" points="-68.0967,-241 66.0967,-241 "/>
<text text-anchor="start" x="-60.0967" y="-225.8" font-family="Times,serif" font-size="14.00">create</text>
<text text-anchor="start" x="-60.0967" y="-211.8" font-family="Times,serif" font-size="14.00">destroy</text>
<text text-anchor="start" x="-60.0967" y="-197.8" font-family="Times,serif" font-size="14.00">index</text>
<text text-anchor="start" x="-60.0967" y="-183.8" font-family="Times,serif" font-size="14.00">show</text>
<text text-anchor="start" x="-60.0967" y="-169.8" font-family="Times,serif" font-size="14.00">update</text>
<polyline fill="none" stroke="black" points="-68.0967,-163 66.0967,-163 "/>
<polyline fill="none" stroke="black" points="-68.0967,-139 66.0967,-139 "/>
<text text-anchor="start" x="-60.0967" y="-123.8" font-family="Times,serif" font-size="14.00">set_specialty</text>
<text text-anchor="start" x="-60.0967" y="-109.8" font-family="Times,serif" font-size="14.00">specialty_params</text>
</g>
<!-- TrainingsController -->
<g id="node7" class="node"><title>TrainingsController</title>
<path fill="none" stroke="black" d="M147.643,135C147.643,135 250.357,135 250.357,135 256.357,135 262.357,129 262.357,123 262.357,123 262.357,-13 262.357,-13 262.357,-19 256.357,-25 250.357,-25 250.357,-25 147.643,-25 147.643,-25 141.643,-25 135.643,-19 135.643,-13 135.643,-13 135.643,123 135.643,123 135.643,129 141.643,135 147.643,135"/>
<text text-anchor="middle" x="199" y="-9.8" font-family="Times,serif" font-size="14.00">TrainingsController</text>
<polyline fill="none" stroke="black" points="135.643,-3 262.357,-3 "/>
<text text-anchor="start" x="143.643" y="12.2" font-family="Times,serif" font-size="14.00">create</text>
<text text-anchor="start" x="143.643" y="26.2" font-family="Times,serif" font-size="14.00">destroy</text>
<text text-anchor="start" x="143.643" y="40.2" font-family="Times,serif" font-size="14.00">index</text>
<text text-anchor="start" x="143.643" y="54.2" font-family="Times,serif" font-size="14.00">show</text>
<text text-anchor="start" x="143.643" y="68.2" font-family="Times,serif" font-size="14.00">update</text>
<polyline fill="none" stroke="black" points="135.643,75 262.357,75 "/>
<polyline fill="none" stroke="black" points="135.643,99 262.357,99 "/>
<text text-anchor="start" x="143.643" y="114.2" font-family="Times,serif" font-size="14.00">set_training</text>
<text text-anchor="start" x="143.643" y="128.2" font-family="Times,serif" font-size="14.00">training_params</text>
</g>
<!-- UsersController -->
<g id="node8" class="node"><title>UsersController</title>
<path fill="none" stroke="black" d="M-191.714,-205C-191.714,-205 -110.286,-205 -110.286,-205 -104.286,-205 -98.2861,-211 -98.2861,-217 -98.2861,-217 -98.2861,-353 -98.2861,-353 -98.2861,-359 -104.286,-365 -110.286,-365 -110.286,-365 -191.714,-365 -191.714,-365 -197.714,-365 -203.714,-359 -203.714,-353 -203.714,-353 -203.714,-217 -203.714,-217 -203.714,-211 -197.714,-205 -191.714,-205"/>
<text text-anchor="middle" x="-151" y="-349.8" font-family="Times,serif" font-size="14.00">UsersController</text>
<polyline fill="none" stroke="black" points="-203.714,-343 -98.2861,-343 "/>
<text text-anchor="start" x="-195.714" y="-327.8" font-family="Times,serif" font-size="14.00">create</text>
<text text-anchor="start" x="-195.714" y="-313.8" font-family="Times,serif" font-size="14.00">destroy</text>
<text text-anchor="start" x="-195.714" y="-299.8" font-family="Times,serif" font-size="14.00">index</text>
<text text-anchor="start" x="-195.714" y="-285.8" font-family="Times,serif" font-size="14.00">show</text>
<text text-anchor="start" x="-195.714" y="-271.8" font-family="Times,serif" font-size="14.00">update</text>
<polyline fill="none" stroke="black" points="-203.714,-265 -98.2861,-265 "/>
<polyline fill="none" stroke="black" points="-203.714,-241 -98.2861,-241 "/>
<text text-anchor="start" x="-195.714" y="-225.8" font-family="Times,serif" font-size="14.00">set_user</text>
<text text-anchor="start" x="-195.714" y="-211.8" font-family="Times,serif" font-size="14.00">user_params</text>
</g>
<!-- VacationsController -->
<g id="node9" class="node"><title>VacationsController</title>
<path fill="none" stroke="black" d="M216.014,-205C216.014,-205 319.986,-205 319.986,-205 325.986,-205 331.986,-211 331.986,-217 331.986,-217 331.986,-353 331.986,-353 331.986,-359 325.986,-365 319.986,-365 319.986,-365 216.014,-365 216.014,-365 210.014,-365 204.014,-359 204.014,-353 204.014,-353 204.014,-217 204.014,-217 204.014,-211 210.014,-205 216.014,-205"/>
<text text-anchor="middle" x="268" y="-349.8" font-family="Times,serif" font-size="14.00">VacationsController</text>
<polyline fill="none" stroke="black" points="204.014,-343 331.986,-343 "/>
<text text-anchor="start" x="212.014" y="-327.8" font-family="Times,serif" font-size="14.00">create</text>
<text text-anchor="start" x="212.014" y="-313.8" font-family="Times,serif" font-size="14.00">destroy</text>
<text text-anchor="start" x="212.014" y="-299.8" font-family="Times,serif" font-size="14.00">index</text>
<text text-anchor="start" x="212.014" y="-285.8" font-family="Times,serif" font-size="14.00">show</text>
<text text-anchor="start" x="212.014" y="-271.8" font-family="Times,serif" font-size="14.00">update</text>
<polyline fill="none" stroke="black" points="204.014,-265 331.986,-265 "/>
<polyline fill="none" stroke="black" points="204.014,-241 331.986,-241 "/>
<text text-anchor="start" x="212.014" y="-225.8" font-family="Times,serif" font-size="14.00">set_vacation</text>
<text text-anchor="start" x="212.014" y="-211.8" font-family="Times,serif" font-size="14.00">vacation_params</text>
</g>
</g>
</svg>
