<?xml version="1.0" encoding="UTF-8" standalone="no"?>
<!DOCTYPE svg PUBLIC "-//W3C//DTD SVG 1.1//EN"
 "http://www.w3.org/Graphics/SVG/1.1/DTD/svg11.dtd">
<!-- Generated by graphviz version 2.38.0 (20140413.2041)
 -->
<!-- Title: models_diagram Pages: 1 -->
<svg width="866pt" height="153pt"
 viewBox="0.00 0.00 865.73 153.00" xmlns="http://www.w3.org/2000/svg" xmlns:xlink="http://www.w3.org/1999/xlink">
<g id="graph0" class="graph" transform="scale(1 1) rotate(0) translate(4 149)">
<title>models_diagram</title>
<polygon fill="none" stroke="none" points="-4,4 -4,-149 861.734,-149 861.734,4 -4,4"/>
<!-- _diagram_info -->
<g id="node1" class="node"><title>_diagram_info</title>
<text text-anchor="start" x="8" y="-130.6" font-family="Times,serif" font-size="13.00">Models diagram</text>
<text text-anchor="start" x="8" y="-117.6" font-family="Times,serif" font-size="13.00">Date: Apr 23 2016 &#45; 16:55</text>
<text text-anchor="start" x="8" y="-104.6" font-family="Times,serif" font-size="13.00">Migration version: 20160423204437</text>
<text text-anchor="start" x="8" y="-91.6" font-family="Times,serif" font-size="13.00">Generated by RailRoady 1.4.2</text>
<text text-anchor="start" x="8" y="-78.6" font-family="Times,serif" font-size="13.00">http://railroady.prestonlee.com</text>
</g>
<!-- Diving -->
<g id="node2" class="node"><title>Diving</title>
<ellipse fill="none" stroke="black" cx="259.688" cy="-108.5" rx="34.8458" ry="18"/>
<text text-anchor="middle" x="259.688" y="-104.3" font-family="Times,serif" font-size="14.00">Diving</text>
</g>
<!-- MiscellaneousPricing -->
<g id="node3" class="node"><title>MiscellaneousPricing</title>
<ellipse fill="none" stroke="black" cx="398.688" cy="-108.5" rx="86.9722" ry="18"/>
<text text-anchor="middle" x="398.688" y="-104.3" font-family="Times,serif" font-size="14.00">MiscellaneousPricing</text>
</g>
<!-- Rental -->
<g id="node4" class="node"><title>Rental</title>
<ellipse fill="none" stroke="black" cx="536.688" cy="-108.5" rx="33.3839" ry="18"/>
<text text-anchor="middle" x="536.688" y="-104.3" font-family="Times,serif" font-size="14.00">Rental</text>
</g>
<!-- Specialty -->
<g id="node5" class="node"><title>Specialty</title>
<ellipse fill="none" stroke="black" cx="630.688" cy="-108.5" rx="43.0301" ry="18"/>
<text text-anchor="middle" x="630.688" y="-104.3" font-family="Times,serif" font-size="14.00">Specialty</text>
</g>
<!-- Training -->
<g id="node6" class="node"><title>Training</title>
<ellipse fill="none" stroke="black" cx="731.688" cy="-108.5" rx="40.0045" ry="18"/>
<text text-anchor="middle" x="731.688" y="-104.3" font-family="Times,serif" font-size="14.00">Training</text>
</g>
<!-- User -->
<g id="node7" class="node"><title>User</title>
<ellipse fill="none" stroke="black" cx="816.688" cy="-108.5" rx="27" ry="18"/>
<text text-anchor="middle" x="816.688" y="-104.3" font-family="Times,serif" font-size="14.00">User</text>
</g>
<!-- Vacation -->
<g id="node8" class="node"><title>Vacation</title>
<ellipse fill="none" stroke="black" cx="816.688" cy="-18" rx="41.092" ry="18"/>
<text text-anchor="middle" x="816.688" y="-13.8" font-family="Times,serif" font-size="14.00">Vacation</text>
</g>
<!-- User&#45;&gt;Vacation -->
<g id="edge1" class="edge"><title>User&#45;&gt;Vacation</title>
<path fill="none" stroke="#c7f8b6" d="M816.688,-82.189C816.688,-70.9711 816.688,-57.7517 816.688,-46.3113"/>
<ellipse fill="none" stroke="#c7f8b6" cx="816.688" cy="-86.4363" rx="4" ry="4"/>
<polygon fill="#c7f8b6" stroke="#c7f8b6" points="816.688,-46.0113 821.188,-36.0113 816.688,-41.0113 816.688,-36.0113 816.688,-36.0113 816.688,-36.0113 816.688,-41.0113 812.188,-36.0113 816.688,-46.0113 816.688,-46.0113"/>
</g>
</g>
</svg>
