<?xml version="1.0" encoding="UTF-8" standalone="no"?>
<!DOCTYPE svg PUBLIC "-//W3C//DTD SVG 1.1//EN"
 "http://www.w3.org/Graphics/SVG/1.1/DTD/svg11.dtd">
<!-- Generated by graphviz version 2.38.0 (20140413.2041)
 -->
<!-- Title: models_diagram Pages: 1 -->
<svg width="1812pt" height="358pt"
 viewBox="0.00 0.00 1811.55 358.00" xmlns="http://www.w3.org/2000/svg" xmlns:xlink="http://www.w3.org/1999/xlink">
<g id="graph0" class="graph" transform="scale(1 1) rotate(0) translate(4 354)">
<title>models_diagram</title>
<polygon fill="none" stroke="none" points="-4,4 -4,-354 1807.55,-354 1807.55,4 -4,4"/>
<!-- _diagram_info -->
<g id="node1" class="node"><title>_diagram_info</title>
<text text-anchor="start" x="8" y="-279.6" font-family="Times,serif" font-size="13.00">Models diagram</text>
<text text-anchor="start" x="8" y="-266.6" font-family="Times,serif" font-size="13.00">Date: Apr 23 2016 &#45; 16:55</text>
<text text-anchor="start" x="8" y="-253.6" font-family="Times,serif" font-size="13.00">Migration version: 20160423204437</text>
<text text-anchor="start" x="8" y="-240.6" font-family="Times,serif" font-size="13.00">Generated by RailRoady 1.4.2</text>
<text text-anchor="start" x="8" y="-227.6" font-family="Times,serif" font-size="13.00">http://railroady.prestonlee.com</text>
</g>
<!-- Diving -->
<g id="node2" class="node"><title>Diving</title>
<path fill="none" stroke="black" d="M237.825,-200.5C237.825,-200.5 461.55,-200.5 461.55,-200.5 467.55,-200.5 473.55,-206.5 473.55,-212.5 473.55,-212.5 473.55,-302.5 473.55,-302.5 473.55,-308.5 467.55,-314.5 461.55,-314.5 461.55,-314.5 237.825,-314.5 237.825,-314.5 231.825,-314.5 225.825,-308.5 225.825,-302.5 225.825,-302.5 225.825,-212.5 225.825,-212.5 225.825,-206.5 231.825,-200.5 237.825,-200.5"/>
<text text-anchor="middle" x="349.688" y="-299.3" font-family="Times,serif" font-size="14.00">Diving</text>
<polyline fill="none" stroke="black" points="225.825,-292.5 473.55,-292.5 "/>
<text text-anchor="start" x="233.825" y="-277.3" font-family="Times,serif" font-size="14.00">id :integer</text>
<text text-anchor="start" x="233.825" y="-263.3" font-family="Times,serif" font-size="14.00">title :character varying</text>
<text text-anchor="start" x="233.825" y="-249.3" font-family="Times,serif" font-size="14.00">price :numeric</text>
<text text-anchor="start" x="233.825" y="-235.3" font-family="Times,serif" font-size="14.00">description :text</text>
<text text-anchor="start" x="233.825" y="-221.3" font-family="Times,serif" font-size="14.00">created_at :timestamp without time zone</text>
<text text-anchor="start" x="233.825" y="-207.3" font-family="Times,serif" font-size="14.00">updated_at :timestamp without time zone</text>
</g>
<!-- MiscellaneousPricing -->
<g id="node3" class="node"><title>MiscellaneousPricing</title>
<path fill="none" stroke="black" d="M503.825,-200.5C503.825,-200.5 727.55,-200.5 727.55,-200.5 733.55,-200.5 739.55,-206.5 739.55,-212.5 739.55,-212.5 739.55,-302.5 739.55,-302.5 739.55,-308.5 733.55,-314.5 727.55,-314.5 727.55,-314.5 503.825,-314.5 503.825,-314.5 497.825,-314.5 491.825,-308.5 491.825,-302.5 491.825,-302.5 491.825,-212.5 491.825,-212.5 491.825,-206.5 497.825,-200.5 503.825,-200.5"/>
<text text-anchor="middle" x="615.688" y="-299.3" font-family="Times,serif" font-size="14.00">MiscellaneousPricing</text>
<polyline fill="none" stroke="black" points="491.825,-292.5 739.55,-292.5 "/>
<text text-anchor="start" x="499.825" y="-277.3" font-family="Times,serif" font-size="14.00">id :integer</text>
<text text-anchor="start" x="499.825" y="-263.3" font-family="Times,serif" font-size="14.00">title :character varying</text>
<text text-anchor="start" x="499.825" y="-249.3" font-family="Times,serif" font-size="14.00">price :numeric</text>
<text text-anchor="start" x="499.825" y="-235.3" font-family="Times,serif" font-size="14.00">description :text</text>
<text text-anchor="start" x="499.825" y="-221.3" font-family="Times,serif" font-size="14.00">created_at :timestamp without time zone</text>
<text text-anchor="start" x="499.825" y="-207.3" font-family="Times,serif" font-size="14.00">updated_at :timestamp without time zone</text>
</g>
<!-- Rental -->
<g id="node4" class="node"><title>Rental</title>
<path fill="none" stroke="black" d="M769.825,-200.5C769.825,-200.5 993.55,-200.5 993.55,-200.5 999.55,-200.5 1005.55,-206.5 1005.55,-212.5 1005.55,-212.5 1005.55,-302.5 1005.55,-302.5 1005.55,-308.5 999.55,-314.5 993.55,-314.5 993.55,-314.5 769.825,-314.5 769.825,-314.5 763.825,-314.5 757.825,-308.5 757.825,-302.5 757.825,-302.5 757.825,-212.5 757.825,-212.5 757.825,-206.5 763.825,-200.5 769.825,-200.5"/>
<text text-anchor="middle" x="881.688" y="-299.3" font-family="Times,serif" font-size="14.00">Rental</text>
<polyline fill="none" stroke="black" points="757.825,-292.5 1005.55,-292.5 "/>
<text text-anchor="start" x="765.825" y="-277.3" font-family="Times,serif" font-size="14.00">id :integer</text>
<text text-anchor="start" x="765.825" y="-263.3" font-family="Times,serif" font-size="14.00">title :character varying</text>
<text text-anchor="start" x="765.825" y="-249.3" font-family="Times,serif" font-size="14.00">price :numeric</text>
<text text-anchor="start" x="765.825" y="-235.3" font-family="Times,serif" font-size="14.00">description :text</text>
<text text-anchor="start" x="765.825" y="-221.3" font-family="Times,serif" font-size="14.00">created_at :timestamp without time zone</text>
<text text-anchor="start" x="765.825" y="-207.3" font-family="Times,serif" font-size="14.00">updated_at :timestamp without time zone</text>
</g>
<!-- Specialty -->
<g id="node5" class="node"><title>Specialty</title>
<path fill="none" stroke="black" d="M1035.83,-200.5C1035.83,-200.5 1259.55,-200.5 1259.55,-200.5 1265.55,-200.5 1271.55,-206.5 1271.55,-212.5 1271.55,-212.5 1271.55,-302.5 1271.55,-302.5 1271.55,-308.5 1265.55,-314.5 1259.55,-314.5 1259.55,-314.5 1035.83,-314.5 1035.83,-314.5 1029.83,-314.5 1023.83,-308.5 1023.83,-302.5 1023.83,-302.5 1023.83,-212.5 1023.83,-212.5 1023.83,-206.5 1029.83,-200.5 1035.83,-200.5"/>
<text text-anchor="middle" x="1147.69" y="-299.3" font-family="Times,serif" font-size="14.00">Specialty</text>
<polyline fill="none" stroke="black" points="1023.83,-292.5 1271.55,-292.5 "/>
<text text-anchor="start" x="1031.83" y="-277.3" font-family="Times,serif" font-size="14.00">id :integer</text>
<text text-anchor="start" x="1031.83" y="-263.3" font-family="Times,serif" font-size="14.00">title :character varying</text>
<text text-anchor="start" x="1031.83" y="-249.3" font-family="Times,serif" font-size="14.00">price :numeric</text>
<text text-anchor="start" x="1031.83" y="-235.3" font-family="Times,serif" font-size="14.00">description :text</text>
<text text-anchor="start" x="1031.83" y="-221.3" font-family="Times,serif" font-size="14.00">created_at :timestamp without time zone</text>
<text text-anchor="start" x="1031.83" y="-207.3" font-family="Times,serif" font-size="14.00">updated_at :timestamp without time zone</text>
</g>
<!-- Training -->
<g id="node6" class="node"><title>Training</title>
<path fill="none" stroke="black" d="M1301.83,-200.5C1301.83,-200.5 1525.55,-200.5 1525.55,-200.5 1531.55,-200.5 1537.55,-206.5 1537.55,-212.5 1537.55,-212.5 1537.55,-302.5 1537.55,-302.5 1537.55,-308.5 1531.55,-314.5 1525.55,-314.5 1525.55,-314.5 1301.83,-314.5 1301.83,-314.5 1295.83,-314.5 1289.83,-308.5 1289.83,-302.5 1289.83,-302.5 1289.83,-212.5 1289.83,-212.5 1289.83,-206.5 1295.83,-200.5 1301.83,-200.5"/>
<text text-anchor="middle" x="1413.69" y="-299.3" font-family="Times,serif" font-size="14.00">Training</text>
<polyline fill="none" stroke="black" points="1289.83,-292.5 1537.55,-292.5 "/>
<text text-anchor="start" x="1297.83" y="-277.3" font-family="Times,serif" font-size="14.00">id :integer</text>
<text text-anchor="start" x="1297.83" y="-263.3" font-family="Times,serif" font-size="14.00">title :character varying</text>
<text text-anchor="start" x="1297.83" y="-249.3" font-family="Times,serif" font-size="14.00">price :numeric</text>
<text text-anchor="start" x="1297.83" y="-235.3" font-family="Times,serif" font-size="14.00">description :text</text>
<text text-anchor="start" x="1297.83" y="-221.3" font-family="Times,serif" font-size="14.00">created_at :timestamp without time zone</text>
<text text-anchor="start" x="1297.83" y="-207.3" font-family="Times,serif" font-size="14.00">updated_at :timestamp without time zone</text>
</g>
<!-- User -->
<g id="node7" class="node"><title>User</title>
<path fill="none" stroke="black" d="M1567.83,-165.5C1567.83,-165.5 1791.55,-165.5 1791.55,-165.5 1797.55,-165.5 1803.55,-171.5 1803.55,-177.5 1803.55,-177.5 1803.55,-337.5 1803.55,-337.5 1803.55,-343.5 1797.55,-349.5 1791.55,-349.5 1791.55,-349.5 1567.83,-349.5 1567.83,-349.5 1561.83,-349.5 1555.83,-343.5 1555.83,-337.5 1555.83,-337.5 1555.83,-177.5 1555.83,-177.5 1555.83,-171.5 1561.83,-165.5 1567.83,-165.5"/>
<text text-anchor="middle" x="1679.69" y="-334.3" font-family="Times,serif" font-size="14.00">User</text>
<polyline fill="none" stroke="black" points="1555.83,-327.5 1803.55,-327.5 "/>
<text text-anchor="start" x="1563.83" y="-312.3" font-family="Times,serif" font-size="14.00">id :integer</text>
<text text-anchor="start" x="1563.83" y="-298.3" font-family="Times,serif" font-size="14.00">first_name :character varying</text>
<text text-anchor="start" x="1563.83" y="-284.3" font-family="Times,serif" font-size="14.00">last_name :character varying</text>
<text text-anchor="start" x="1563.83" y="-270.3" font-family="Times,serif" font-size="14.00">email :character varying</text>
<text text-anchor="start" x="1563.83" y="-256.3" font-family="Times,serif" font-size="14.00">phone :character varying</text>
<text text-anchor="start" x="1563.83" y="-242.3" font-family="Times,serif" font-size="14.00">password :character varying</text>
<text text-anchor="start" x="1563.83" y="-228.3" font-family="Times,serif" font-size="14.00">auth_token :character varying</text>
<text text-anchor="start" x="1563.83" y="-214.3" font-family="Times,serif" font-size="14.00">admin :boolean</text>
<text text-anchor="start" x="1563.83" y="-200.3" font-family="Times,serif" font-size="14.00">comments :text</text>
<text text-anchor="start" x="1563.83" y="-186.3" font-family="Times,serif" font-size="14.00">created_at :timestamp without time zone</text>
<text text-anchor="start" x="1563.83" y="-172.3" font-family="Times,serif" font-size="14.00">updated_at :timestamp without time zone</text>
</g>
<!-- Vacation -->
<g id="node8" class="node"><title>Vacation</title>
<path fill="none" stroke="black" d="M1567.83,-0.5C1567.83,-0.5 1791.55,-0.5 1791.55,-0.5 1797.55,-0.5 1803.55,-6.5 1803.55,-12.5 1803.55,-12.5 1803.55,-116.5 1803.55,-116.5 1803.55,-122.5 1797.55,-128.5 1791.55,-128.5 1791.55,-128.5 1567.83,-128.5 1567.83,-128.5 1561.83,-128.5 1555.83,-122.5 1555.83,-116.5 1555.83,-116.5 1555.83,-12.5 1555.83,-12.5 1555.83,-6.5 1561.83,-0.5 1567.83,-0.5"/>
<text text-anchor="middle" x="1679.69" y="-113.3" font-family="Times,serif" font-size="14.00">Vacation</text>
<polyline fill="none" stroke="black" points="1555.83,-106.5 1803.55,-106.5 "/>
<text text-anchor="start" x="1563.83" y="-91.3" font-family="Times,serif" font-size="14.00">id :integer</text>
<text text-anchor="start" x="1563.83" y="-77.3" font-family="Times,serif" font-size="14.00">user_id :integer</text>
<text text-anchor="start" x="1563.83" y="-63.3" font-family="Times,serif" font-size="14.00">dates_array :text</text>
<text text-anchor="start" x="1563.83" y="-49.3" font-family="Times,serif" font-size="14.00">created_at :timestamp without time zone</text>
<text text-anchor="start" x="1563.83" y="-35.3" font-family="Times,serif" font-size="14.00">updated_at :timestamp without time zone</text>
<text text-anchor="start" x="1563.83" y="-21.3" font-family="Times,serif" font-size="14.00">diving_objects :jsonb</text>
<text text-anchor="start" x="1563.83" y="-7.3" font-family="Times,serif" font-size="14.00">training_objects :jsonb</text>
</g>
<!-- User&#45;&gt;Vacation -->
<g id="edge1" class="edge"><title>User&#45;&gt;Vacation</title>
<path fill="none" stroke="#18b7fe" d="M1679.69,-157.272C1679.69,-151.019 1679.69,-144.787 1679.69,-138.684"/>
<ellipse fill="none" stroke="#18b7fe" cx="1679.69" cy="-161.475" rx="4" ry="4"/>
<polygon fill="#18b7fe" stroke="#18b7fe" points="1679.69,-138.553 1684.19,-128.553 1679.69,-133.553 1679.69,-128.553 1679.69,-128.553 1679.69,-128.553 1679.69,-133.553 1675.19,-128.553 1679.69,-138.553 1679.69,-138.553"/>
</g>
</g>
</svg>
